{"title":"Stomp.The.Yard.2.Homecoming.2010.BRRip.XviD.Ac3.Feel-Free","uid":5826839,"size":1305533387,"categoryP":"video","categoryS":"movies","magnet":"?xt=urn:btih:8e5aaa31b95d1b2ff589b4e0b625dc20f7089627&amp;dn=Stomp.The.Yard.2.Homecoming.2010.BRRip.XviD.Ac3.Feel-Free&amp;tr=udp%3A%2F%2Ftracker.openbittorrent.com%3A80&amp;tr=udp%3A%2F%2Fopen.demonii.com%3A1337&amp;tr=udp%3A%2F%2Ftracker.coppersurfer.tk%3A6969&amp;tr=udp%3A%2F%2Fexodus.desync.com%3A6969","seeders":0,"leechers":0,"uploader":"neon","files":-1,"time":1284323172,"description":"Language: English\n &lt;a href=&quot; http://www.imdb.com/title/tt1533817/&quot; rel=&quot;nofollow&quot; target=&quot;_NEW&quot;&gt; http://www.imdb.com/title/tt1533817/&lt;/a&gt;\nSource:720p DTS x264-CHD\n\nGeneral\nComplete name :Stomp.The.Yard.2.Homecoming.2010.BRRip.XviD.Ac3.Feel-Free\nFormat : AVI\nFormat/Info : Audio Video Interleave\nFile size : 1.22 GiB\nDuration : 1h 27mn\nOverall bit rate : 1 983 Kbps\nVideo #0\nCodec ID : XVID\nCodec ID/Hint : XviD\nDuration : 1h 27mn\nBit rate : 1 590 Kbps\nWidth : 652 pixels\nHeight : 352 pixels\nDisplay aspect ratio : 1.852\nFrame rate : 23.976 fps\nResolution : 24 bits\nColorimetry : 4:2:0\nScan type : Progressive\nBits/(Pixel*Frame) : 0.289\nStream size : 998 MiB (80%)\nWriting library : XviD 1.2.1 (UTC 2008-12-04)\nAudio #1\nID : 1\nFormat : AC-3\nFormat/Info : Audio Coding 3\nCodec ID : 2000\nDuration : 1h 27mn\nBit rate mode : Constant\nBit rate : 384 Kbps\nChannel(s) : 6 channels\nChannel positions : Front: L C R, Surround: L R, LFE\nSampling rate : 48.0 KHz\nStream size : 241 MiB (19%)\nAlignment : Split accross interleaves\nInterleave, duration : 42 ms (1.00 video frame)\nInterleave, preload duration : 500 ms\n\nPlot\nChance Harris looks to find a balance between his school, work, relationships and opportunity to perform at the nationally televised step competition during homecoming weekend at Truth University","torrent":{"xt":"urn:btih:8e5aaa31b95d1b2ff589b4e0b625dc20f7089627","amp;dn":"Stomp.The.Yard.2.Homecoming.2010.BRRip.XviD.Ac3.Feel-Free","amp;tr":["udp%3A%2F%2Ftracker.openbittorrent.com%3A80","udp%3A%2F%2Fopen.demonii.com%3A1337","udp%3A%2F%2Ftracker.coppersurfer.tk%3A6969","udp%3A%2F%2Fexodus.desync.com%3A6969"],"infoHash":"8e5aaa31b95d1b2ff589b4e0b625dc20f7089627","infoHashBuffer":{"type":"Buffer","data":[142,90,170,49,185,93,27,47,245,137,180,224,182,37,220,32,247,8,150,39]},"announce":[],"urlList":[]}}